<?xml version="1.0" encoding="utf-8"?>
<!-- Generator: Adobe Illustrator 18.1.0, SVG Export Plug-In . SVG Version: 6.00 Build 0)  -->
<svg version="1.1" id="Livello_1" xmlns="http://www.w3.org/2000/svg" xmlns:xlink="http://www.w3.org/1999/xlink" x="0px" y="0px"
	 viewBox="0 0 300 300" enable-background="new 0 0 300 300" xml:space="preserve">
<g>
	<g>
		<path fill="#D3D3D3" d="M111,301c-35.5,0-71,0-106.4,0.1c-2.8,0-3.7-0.4-3.6-3.5C1,199.9,1,102.3,0.9,4.7c0-3.2,0.8-3.8,3.9-3.8
			C102.2,1,199.7,1,297.1,0.9c3.7,0,3.9,1.1,3.9,4.2C301,92.1,301,179,301,266c-1.8,1.9-4.1,2-6.5,1.9c-5.9-0.2-11.5,1.4-17.3,1.9
			c-11.5,1.1-23.2,1.8-34.8,0.7c-4.5-0.4-7.1-3.7-8-7.9c-2.5-12.6-4.8-25.2-2.7-38.2c0.1-0.7,0.2-1.3,0.2-2
			c-0.3-11.8,0.5-23.6,2-35.4c1.7-12.6-0.8-25.2-0.1-37.9c0.5-8.2-1.5-16.2-2.1-24.3c-0.2-3.3-1.3-6.5-3.9-8.9
			c-3.5-3.3-4.9-7.5-4.8-12.2c0.1-4.8-1.1-9.2-2.6-13.7c-1.4-4.2-3.1-8.1-7.2-10.3c-1.3-0.7-2.4-1.9-3.1-3.2
			c-5.6-9.1-13.4-16-21.5-22.8c-7.1-6-13.7-12.7-21.2-18.2c-1-0.8-1.8-2-3.7-2c-0.5,2.4,0.4,4.8,0.8,7.1c0.4,2.3,1,4.6,0.9,6.9
			c-0.1,2.3-1.2,4.2-3.4,5.1c-2.2,1-4.3,0.3-6-1.2c-2.5-2.3-4.4-5.1-5.6-8.2c-2.9-8.1-10.2-12.1-15.9-17.5c-2.2-2-3.4,0.1-4.2,1.6
			c-3.2,5.9-4.4,12.2-2.4,18.8c0.9,3,2.2,5.9,2.7,9.1c0.9,6.4-1.5,10.4-7.7,12c-5,1.4-10,2.6-15.1,3.5c-6.3,1.1-12.1,3.6-17.9,6.2
			c-5.9,2.7-8.5,8.4-7,14.8c0.3,1.3,0.7,2.6,0.9,3.9c1.3,7.8-0.4,11.4-7.3,15.2c-5.1,2.8-10.6,4.9-15.8,7.4
			c-8.8,4.3-14.3,10.4-17.5,20.3c-3,9.2-2,15.9,4.1,22.8c2.1,2.3,3.5,5.3,5.9,7.4c4.7,4.1,9.8,6.7,16.4,5.6c4.4-0.7,9.1-1,13.4,0.2
			c8.7,2.4,16,6.6,18.7,16.1c1,3.5,2.3,7,5,9.6c4,3.8,4.9,8.6,3.9,13.8c-1.9,9.9-1.7,19.8-0.9,29.8c0.9,10.4,0.3,21,0.2,31.5
			c0,7,0.2,14,1.7,20.9C112,297.9,112.3,299.6,111,301z"/>
		<path fill="#7B7B7B" d="M111,301c-3.4-10.5-3.3-21.3-3.2-32.1c0.2-10.3,0.7-20.6-0.7-30.9c-1-7.8-0.3-15.6,1.4-23.3
			c1.2-5.2,0.9-9.9-3.8-13.5c-2.2-1.7-3.7-4.1-4-6.7c-1.7-14.2-17.5-20.8-30.7-18.3c-9.6,1.8-16.7-2.4-21.8-9.8
			c-11-16-10.9-16.1-5.1-34.6c2.2-6.9,8-10.4,13.8-13.7c5.4-3,11.1-5.3,16.7-8c9.3-4.4,10.5-6.7,7.4-16.8c-1.4-4.7-0.9-8.8,1.6-12.9
			c1.4-2.2,3.1-3.8,5.4-4.9c9.6-4.8,20-7.1,30.5-9c10.5-1.9,12.9-5,9-14.9c-3.9-9.8-3.4-18.7,2.3-27.5c1.8-2.7,3.1-3.7,5.5-0.6
			c1.9,2.3,4.1,4.5,6.6,6c7.3,4.5,9.4,12.7,13.7,19.2c1.5,2.3,3,3.7,5.6,2.8c2.7-1,2.9-3.2,2.2-5.8c-1-4-1.8-8.1-2.6-12.2
			c-0.3-1.4-0.5-3.2,1.3-3.9c1.6-0.7,2.2,0.9,3.2,1.7c9.3,8,18.9,15.7,27.9,24c6.3,5.8,13.2,11.2,17.3,19.1c0.7,1.3,1.6,2.8,2.8,3.4
			c9.6,4.9,10,14.4,11.1,23c0.7,6,1.1,11.5,6.3,15.5c2.8,2.1,2.3,5.8,2.8,8.8c1.9,10.2,2,20.5,2,30.8c0,6.8,0.3,13.6,0.8,20.4
			c0.6,7.3-1.1,14.9-1.8,22.3c-0.2,2.3-0.6,4.6-0.7,6.9c-0.3,8.1,0,16.3-1.1,24.4c-1.6,11,1.8,21.8,3.2,32.7
			c0.5,3.6,3.1,6.3,7.3,6.2c6.8-0.1,13.7-0.8,20.5-0.3c12.5,0.9,24.5-4.8,37-2.6c0,10.5-0.1,21,0.1,31.5c0.1,3-0.6,3.6-3.6,3.6
			C235.3,301,173.2,301,111,301z"/>
	</g>
</g>
</svg>
