<?xml version="1.0" encoding="utf-8"?>
<!-- Generator: Adobe Illustrator 18.1.0, SVG Export Plug-In . SVG Version: 6.00 Build 0)  -->
<svg version="1.1" id="Livello_1" xmlns="http://www.w3.org/2000/svg" xmlns:xlink="http://www.w3.org/1999/xlink" x="0px" y="0px"
	 viewBox="0 0 368.1 368.1" enable-background="new 0 0 368.1 368.1" xml:space="preserve">
<g>
	<g>
		<path fill="#FFFFFF" d="M0.4,368.6c0-122.7,0-245.5,0-368.2c122.7,0,245.4,0,368.2,0c0,122.7,0,245.5,0,368.2
			C245.9,368.6,123.1,368.6,0.4,368.6z M366.6,196.2C366.9,85.3,287,3.7,187,2.5C84.2,1.3,2.7,84.2,2.8,184
			c0.1,50.1,17.8,93.4,53.2,128.9c35.4,35.5,78.6,52.8,128.6,53.6c49.6-0.8,92.7-17.8,128-52.9C348.4,278.2,365.8,234.8,366.6,196.2
			z"/>
		<path fill="#A5A5A5" d="M366.6,196.2c-0.7,38.7-18.2,82-53.9,117.4c-35.3,35-78.4,52.1-128,52.9c-50-0.8-93.3-18.1-128.6-53.6
			C20.6,277.4,2.9,234.2,2.8,184C2.7,84.2,84.2,1.3,187,2.5C287,3.7,366.9,85.3,366.6,196.2z M226.8,114.6c-0.6,0-1.1,0-1.7,0
			c-26.5,0-53,0-79.5,0c-2.2,0-2.2,0-2.7-2.2c0-0.1,0-0.2-0.1-0.3c-0.4-1.2-1.5-2.2-2.6-2.2c-1.3,0-2.4,0.8-2.8,2.1
			c-0.1,0.4-0.2,0.9-0.2,1.4c-0.1,1-0.6,1.3-1.5,1.3c-0.5,0-0.9,0-1.4,0c-5.9,0-11.7,0-17.6,0c-0.8,0-1.6,0.2-2.4,0.3
			c-4.1-0.1-9,4.3-9,9.6c0.1,10,0,20.1,0,30.1c-0.1,0.7-0.3,1.5-0.3,2.2c0,32.2,0,64.4,0,96.6c0,0.7,0.2,1.3,0.3,2
			c0.1,2,1,3.7,2.2,5.1c2.1,2.5,4.9,3.5,8.1,3.5c24.5,0,49.1,0,73.6,0c11,0,22.1,0,33.1,0c0.8,0,1.6-0.2,2.3-0.3
			c0.8-0.7,1.8-1.3,2.5-2c12-11.9,23.9-23.9,35.8-35.8c0.5-0.5,0.9-1,1.3-1.6c0-0.6,0-1.3,0-1.9c0-21.6,0-43.2,0-64.8
			c0-1-0.2-1.9-0.3-2.9c0.1-0.8,0.3-1.6,0.3-2.3c0-8.3,0-16.5,0-24.8c0-1.1,0-2.2,0-3.3c-0.3-5.6-5.1-9.4-8.9-9.3
			c-0.8-0.1-1.6-0.3-2.4-0.3c-6,0-12,0-18.1,0c-0.5,0-0.9,0-1.4,0c-0.8,0-1.3-0.4-1.3-1.2c0-0.3,0-0.6,0-0.9
			c-0.2-1.6-1.4-2.7-2.8-2.6c-1.4,0.1-2.5,1.1-2.7,2.7C226.7,113.2,226.8,113.9,226.8,114.6z"/>
		<path fill="#F5F5F5" d="M224.7,263.7c-0.8,0.1-1.6,0.3-2.3,0.3c-11,0-22.1,0-33.1,0c-24.5,0-49.1,0-73.6,0c-3.2,0-6-1-8.1-3.5
			c-1.3-1.5-2.1-3.1-2.2-5.1c0-1,0-2,0-2.9c0-29.7,0-59.5,0-89.2c0-3.2,0-3.2,3.1-3.2c50.8,0,101.7,0,152.5,0c0.5,0,1,0,1.6,0
			c1.3,0.1,1.5,0.3,1.6,1.5c0,0.3,0,0.6,0,0.9c0,9.4,0,18.9,0,28.3c-0.6,0.5-1.2,1.1-1.8,1.6c-8,8-16.1,16.1-24.1,24.1
			c-0.6,0.6-1.2,1.1-1.8,1.6c-0.8-0.8-1.8-0.8-2.9-0.8c-32.6,0-65.2,0-97.8,0c-0.5,0-1,0-1.5,0.1c-1.5,0.3-2.2,1.9-1.3,3.2
			c0.3,0.4,0.8,0.7,1.2,1c0.9,0.1,1.8,0.3,2.7,0.3c27.1,0,54.1,0,81.2,0c4.2,0,8.4,0,12.6,0c0.6,0,1.2,0.1,2.1,0.1
			c-1.3,1.4-2.3,2.6-3.3,3.7c-3.3,2.4-4.9,5.7-4.5,9.8c0.1,0.6,0,1.3,0,1.9c-0.9,0-1.7,0-2.6,0c-28.5,0-57,0-85.6,0
			c-0.6,0-1.2,0-1.7,0c-1.4,0.1-2.2,0.7-2.4,1.8c-0.2,1,0.2,1.6,1.5,2.4c0.9,0.1,1.8,0.3,2.7,0.3c28.5,0,56.9,0,85.4,0
			c2.7,0,2.7,0,2.7,2.8C224.7,251.1,224.7,257.4,224.7,263.7z M217.1,177.1c-27.2,0-54.3,0-81.5,0c-0.3,0-0.6,0-0.9,0
			c-1.3,0.1-2.1,0.6-2.3,1.6c-0.3,1.1,0.1,1.8,1.5,2.5c0.9,0.1,1.8,0.3,2.7,0.3c25.7,0,51.5,0,77.2,0c0.6,0,1.2,0,1.7,0
			c1-0.1,1.5,0.4,1.8,1.3c0.5,1.7,1.5,2.9,2.8,4.1c3.1,2.9,7.5,3.4,11.5,1.2c3.6-1.9,5.6-6.2,4.9-10.2c-0.9-4.8-4.7-8.2-9.4-8.4
			C222.2,169.2,217.8,173.2,217.1,177.1z M184.5,197.1c-16.1,0-32.2,0-48.3,0c-0.7,0-1.5,0-2.2,0.2c-1,0.2-1.6,1.1-1.6,2
			c0,0.9,0.6,1.8,1.6,2c0.6,0.2,1.2,0.2,1.9,0.2c32.5,0,65,0,97.5,0c0.5,0,1,0,1.5-0.1c1.1-0.2,1.9-1.1,1.9-2.2c0-1-0.8-1.8-1.8-2
			c-0.7-0.1-1.4-0.1-2.1-0.1C216.7,197.1,200.6,197.1,184.5,197.1z"/>
		<path fill="#6B6B6B" d="M105.3,154.6c0-10,0-20.1,0-30.1c0-5.3,4.8-9.6,9-9.6c1.4,0,2.8,0,4.1,0c5.6,0,11.2,0,16.7,0
			c1.7,0,1.9,0.2,1.9,1.9c0,2.4,0,4.8,0,7.2c0,0.6-0.2,1.2-0.3,1.8c-0.3,0.5-0.7,0.9-1,1.4c-1.1,1.9-0.8,4.2,0.6,5.7
			c1.4,1.5,3.6,2,5.5,1.3c2-0.8,3.2-2.7,3.2-4.9c0-1.3-0.6-2.4-1.4-3.4c-0.2-0.8-0.6-1.5-0.6-2.3c-0.1-2.1,0-4.2,0-6.4
			c0-2.4,0-2.5,2.5-2.5c27.1,0,54.2,0,81.3,0c0,3.6,0,7.2,0,10.8c-1.9,1.4-2.6,3.5-1.8,5.7c0.8,2,2.7,3.3,5,3.2
			c2.2-0.1,4-1.6,4.5-3.8c0.4-1.9-0.2-3.5-1.4-4.9c-0.2-1.2-0.6-2.3-0.7-3.5c-0.1-1.8,0-3.7,0-5.5c0-1.8,0.2-2,2-2c0.5,0,1,0,1.5,0
			c6.5,0,13.1,0,19.6,0c3.9,0,8.7,3.7,8.9,9.3c0.1,1.1,0,2.2,0,3.3c0,8.3,0,16.5,0,24.8c0,0.8-0.2,1.6-0.3,2.3c-52,0-104,0-156,0
			C107.1,154.7,106.2,154.6,105.3,154.6z"/>
		<path fill="#EBEBEB" d="M105.3,154.6c0.9,0,1.8,0,2.8,0c52,0,104,0,156,0c0.1,1,0.3,1.9,0.3,2.9c0,21.6,0,43.2,0,64.8
			c0,0.6,0,1.3,0,1.9c-0.1,0-0.2,0-0.3,0c0-11.1,0-22.3,0-33.4c0-9.4,0-18.9,0-28.3c0-0.3,0-0.6,0-0.9c-0.1-1.2-0.3-1.5-1.6-1.5
			c-0.5,0-1,0-1.6,0c-50.8,0-101.7,0-152.5,0c-3.1,0-3.1,0-3.1,3.2c0,29.7,0,59.5,0,89.2c0,1,0,2,0,2.9c-0.1-0.7-0.3-1.3-0.3-2
			c0-32.2,0-64.4,0-96.6C105,156.1,105.2,155.4,105.3,154.6z"/>
		<path fill="#B1B1B1" d="M264,224.3c0.1,0,0.2,0,0.3,0c-0.4,0.5-0.8,1.1-1.3,1.6c-11.9,11.9-23.9,23.9-35.8,35.8
			c-0.8,0.8-1.7,1.4-2.5,2c0-6.3,0-12.6,0-19c0-2.8,0-2.8-2.7-2.8c-28.5,0-56.9,0-85.4,0c-0.9,0-1.8-0.2-2.7-0.3c0.9,0,1.8,0,2.8,0
			c28.3,0,56.5,0,84.8,0c0.6,0,1.3,0,1.9,0c1.1-0.1,1.3-0.3,1.3-1.4c0.1-0.9,0-1.8,0-2.8c0-0.6,0-1.3,0-1.9
			c-0.3-4.1,1.2-7.4,4.5-9.8c2.5-1.3,5.2-1.5,8-1.4c7.5,0.1,15,0,22.5,0C261.2,224.3,262.6,224.3,264,224.3z"/>
		<path fill="#7B7B7B" d="M136.7,125.9c0.1-0.6,0.3-1.2,0.3-1.8c0-2.4,0-4.8,0-7.2c0-1.7-0.2-1.9-1.9-1.9c-5.6,0-11.2,0-16.7,0
			c-1.4,0-2.8,0-4.1,0c0.8-0.1,1.6-0.3,2.4-0.3c5.9,0,11.7,0,17.6,0c0.5,0,0.9,0,1.4,0c0.9,0,1.4-0.3,1.5-1.3c0-0.5,0.1-0.9,0.2-1.4
			c0.4-1.3,1.6-2.1,2.8-2.1c1.1,0,2.3,1,2.6,2.2c0,0.1,0.1,0.2,0.1,0.3c0.5,2.2,0.5,2.2,2.7,2.2c26.5,0,53,0,79.5,0
			c0.6,0,1.1,0,1.7,0c0,0.1,0,0.2,0,0.4c-27.1,0-54.2,0-81.3,0c-2.5,0-2.5,0-2.5,2.5c0,2.1-0.1,4.3,0,6.4c0,0.8,0.4,1.5,0.6,2.3
			c-0.7,0.1-0.6,0.6-0.6,1c0,1,0,2-0.1,2.9c-0.2,1.5-1.2,2.4-2.6,2.5c-1.5,0.1-2.7-0.8-3-2.3c-0.2-0.8,0-1.7-0.1-2.6
			C137,127.1,136.8,126.5,136.7,125.9z"/>
		<path fill="#7B7B7B" d="M226.8,114.9c0-0.1,0-0.2,0-0.4c0-0.7,0-1.4,0-2.1c0.1-1.5,1.2-2.6,2.7-2.7c1.4-0.1,2.7,1.1,2.8,2.6
			c0,0.3,0,0.6,0,0.9c0,0.9,0.5,1.2,1.3,1.2c0.5,0,0.9,0,1.4,0c6,0,12,0,18.1,0c0.8,0,1.6,0.2,2.4,0.3c-6.5,0-13.1,0-19.6,0
			c-0.5,0-1,0-1.5,0c-1.8,0-1.9,0.2-2,2c0,1.8-0.1,3.7,0,5.5c0.1,1.2,0.4,2.3,0.7,3.5c-0.2,0.4-0.5,0.7-0.6,1.1
			c-0.1,0.8,0,1.6,0,2.4c-0.1,1.9-1.1,3-2.8,3.1c-1.7,0-2.8-1.1-2.8-3c0-1.3,0-2.5,0-3.8C226.7,122.2,226.7,118.6,226.8,114.9z"/>
		<path fill="#EBEBEB" d="M264,224.3c-1.4,0-2.9,0.1-4.3,0.1c-7.5,0-15,0-22.5,0c-2.8,0-5.5,0.1-8,1.4c1-1.1,2-2.3,3.3-3.7
			c-0.9-0.1-1.5-0.1-2.1-0.1c-4.2,0-8.4,0-12.6,0c-27.1,0-54.1,0-81.2,0c-0.9,0-1.8-0.2-2.7-0.3c0.4,0,0.8,0,1.2,0
			c32.1,0,64.2,0,96.3,0c0.8,0,1.6,0,2.4,0c2.4-0.1,3.2-1.1,2.5-3.4c0.6-0.5,1.2-1,1.8-1.6c8-8,16.1-16.1,24.1-24.1
			c0.6-0.6,1.2-1.1,1.8-1.6C264,202,264,213.1,264,224.3z"/>
		<path fill="#7C7C7C" d="M184.5,197.1c16.1,0,32.2,0,48.3,0c0.7,0,1.4,0,2.1,0.1c1.1,0.2,1.8,1.1,1.8,2c0,1-0.7,1.9-1.9,2.2
			c-0.5,0.1-1,0.1-1.5,0.1c-32.5,0-65,0-97.5,0c-0.6,0-1.3,0-1.9-0.2c-1-0.3-1.6-1.1-1.6-2c0-0.9,0.6-1.8,1.6-2
			c0.7-0.2,1.5-0.2,2.2-0.2C152.3,197.1,168.4,197.1,184.5,197.1z"/>
		<path fill="#7B7B7B" d="M236.3,218.2c0.7,2.3-0.1,3.4-2.5,3.4c-0.8,0-1.6,0-2.4,0c-32.1,0-64.2,0-96.3,0c-0.4,0-0.8,0-1.2,0
			c-0.4-0.3-0.9-0.6-1.2-1c-0.9-1.2-0.2-2.9,1.3-3.2c0.5-0.1,1-0.1,1.5-0.1c32.6,0,65.2,0,97.8,0
			C234.5,217.4,235.5,217.4,236.3,218.2z"/>
		<path fill="#7B7B7B" d="M224.7,237.4c0,0.9,0,1.8,0,2.8c-0.1,1.1-0.3,1.3-1.3,1.4c-0.6,0-1.3,0-1.9,0c-28.3,0-56.5,0-84.8,0
			c-0.9,0-1.8,0-2.8,0c-1.3-0.8-1.7-1.4-1.5-2.4c0.2-1.1,1.1-1.7,2.4-1.8c0.6,0,1.1,0,1.7,0c28.5,0,57,0,85.6,0
			C223,237.5,223.8,237.5,224.7,237.4z"/>
		<path fill="#7C7C7C" d="M133.9,181.2c-1.4-0.8-1.8-1.5-1.5-2.5c0.3-1,1-1.6,2.3-1.6c0.3,0,0.6,0,0.9,0c27.2,0,54.3,0,81.5,0
			c-0.1,0.5-0.3,1-0.3,1.5c0.1,3-0.5,2.6-2.9,2.6c-25.7,0-51.5,0-77.2,0C135.7,181.2,134.8,181.2,133.9,181.2z"/>
		<path fill="#B1B1B1" d="M133.9,181.2c0.9,0,1.8,0,2.8,0c25.7,0,51.5,0,77.2,0c2.4,0,3,0.4,2.9-2.6c0-0.5,0.2-1,0.3-1.5
			c0.6-3.9,5.1-7.8,10-7.6c4.7,0.2,8.5,3.6,9.4,8.4c0.7,4-1.3,8.3-4.9,10.2c-4,2.2-8.4,1.7-11.5-1.2c-1.2-1.2-2.3-2.4-2.8-4.1
			c-0.3-0.9-0.8-1.3-1.8-1.3c-0.6,0-1.1,0-1.7,0c-25.7,0-51.5,0-77.2,0C135.7,181.5,134.8,181.3,133.9,181.2z"/>
		<path fill="#F4F4F4" d="M226.7,125.8c0,1.3,0,2.5,0,3.8c0.1,1.9,1.2,3,2.8,3c1.7,0,2.7-1.2,2.8-3.1c0-0.8,0-1.6,0-2.4
			c0-0.4,0.4-0.7,0.6-1.1c1.2,1.4,1.8,3,1.4,4.9c-0.5,2.1-2.3,3.7-4.5,3.8c-2.3,0.1-4.2-1.1-5-3.2
			C224.1,129.3,224.8,127.1,226.7,125.8z"/>
		<path fill="#F4F4F4" d="M136.7,125.9c0.1,0.6,0.4,1.2,0.4,1.8c0.1,0.9,0,1.7,0.1,2.6c0.3,1.5,1.5,2.4,3,2.3
			c1.4-0.1,2.4-1.1,2.6-2.5c0.1-1,0-1.9,0.1-2.9c0-0.5,0-1,0.6-1c0.8,1,1.4,2.1,1.4,3.4c0.1,2.2-1.2,4.1-3.2,4.9
			c-1.9,0.7-4.1,0.2-5.5-1.3c-1.4-1.6-1.7-3.8-0.6-5.7C135.9,126.8,136.3,126.4,136.7,125.9z"/>
	</g>
</g>
</svg>
