<?xml version="1.0" encoding="utf-8"?>
<!-- Generator: Adobe Illustrator 18.1.0, SVG Export Plug-In . SVG Version: 6.00 Build 0)  -->
<svg version="1.1" id="Livello_1" xmlns="http://www.w3.org/2000/svg" xmlns:xlink="http://www.w3.org/1999/xlink" x="0px" y="0px"
	 viewBox="198.1 -1.9 567.3 567.3" enable-background="new 198.1 -1.9 567.3 567.3" xml:space="preserve">
<g>
	<g>
		<path fill="#D3D3D3" d="M407.2,561.9c-66.3,0-132.5,0-198.6,0.2c-5.2,0-6.9-0.7-6.7-6.5c0-182.4,0-364.6-0.2-546.7
			c0-6,1.5-7.1,7.3-7.1c181.8,0.2,363.8,0.2,545.6,0c6.9,0,7.3,2.1,7.3,7.8c0,162.4,0,324.6,0,487c-3.4,3.5-7.7,3.7-12.1,3.5
			c-11-0.4-21.5,2.6-32.3,3.5c-21.5,2.1-43.3,3.4-65,1.3c-8.4-0.7-13.3-6.9-14.9-14.7c-4.7-23.5-9-47-5-71.3
			c0.2-1.3,0.4-2.4,0.4-3.7c-0.6-22,0.9-44.1,3.7-66.1c3.2-23.5-1.5-47-0.2-70.7c0.9-15.3-2.8-30.2-3.9-45.4
			c-0.4-6.2-2.4-12.1-7.3-16.6c-6.5-6.2-9.1-14-9-22.8c0.2-9-2.1-17.2-4.9-25.6c-2.6-7.8-5.8-15.1-13.4-19.2c-2.4-1.3-4.5-3.5-5.8-6
			c-10.5-17-25-29.9-40.1-42.6c-13.3-11.2-25.6-23.7-39.6-34c-1.9-1.5-3.4-3.7-6.9-3.7c-0.9,4.5,0.7,9,1.5,13.3
			c0.7,4.3,1.9,8.6,1.7,12.9s-2.2,7.8-6.3,9.5c-4.1,1.9-8,0.6-11.2-2.2c-4.7-4.3-8.2-9.5-10.5-15.3c-5.4-15.1-19-22.6-29.7-32.7
			c-4.1-3.7-6.3,0.2-7.8,3c-6,11-8.2,22.8-4.5,35.1c1.7,5.6,4.1,11,5,17c1.7,11.9-2.8,19.4-14.4,22.4c-9.3,2.6-18.7,4.9-28.2,6.5
			c-11.8,2.1-22.6,6.7-33.4,11.6c-11,5-15.9,15.7-13.1,27.6c0.6,2.4,1.3,4.9,1.7,7.3c2.4,14.6-0.7,21.3-13.6,28.4
			c-9.5,5.2-19.8,9.1-29.5,13.8c-16.4,8-26.7,19.4-32.7,37.9c-5.6,17.2-3.7,29.7,7.7,42.6c3.9,4.3,6.5,9.9,11,13.8
			c8.8,7.7,18.3,12.5,30.6,10.5c8.2-1.3,17-1.9,25,0.4c16.2,4.5,29.9,12.3,34.9,30.1c1.9,6.5,4.3,13.1,9.3,17.9
			c7.5,7.1,9.1,16.1,7.3,25.8c-3.5,18.5-3.2,37-1.7,55.6c1.7,19.4,0.6,39.2,0.4,58.8c0,13.1,0.4,26.1,3.2,39
			C409.1,556.1,409.6,559.3,407.2,561.9z"/>
		<path fill="#7B7B7B" d="M407.2,561.9c-6.3-19.6-6.2-39.8-6-59.9c0.4-19.2,1.3-38.5-1.3-57.7c-1.9-14.6-0.6-29.1,2.6-43.5
			c2.2-9.7,1.7-18.5-7.1-25.2c-4.1-3.2-6.9-7.7-7.5-12.5c-3.2-26.5-32.7-38.8-57.3-34.2c-17.9,3.4-31.2-4.5-40.7-18.3
			c-20.5-29.9-20.3-30.1-9.5-64.6c4.1-12.9,14.9-19.4,25.8-25.6c10.1-5.6,20.7-9.9,31.2-14.9c17.4-8.2,19.6-12.5,13.8-31.4
			c-2.6-8.8-1.7-16.4,3-24.1c2.6-4.1,5.8-7.1,10.1-9.1c17.9-9,37.3-13.3,56.9-16.8s24.1-9.3,16.8-27.8c-7.3-18.3-6.3-34.9,4.3-51.3
			c3.4-5,5.8-6.9,10.3-1.1c3.5,4.3,7.7,8.4,12.3,11.2c13.6,8.4,17.5,23.7,25.6,35.8c2.8,4.3,5.6,6.9,10.5,5.2c5-1.9,5.4-6,4.1-10.8
			c-1.9-7.5-3.4-15.1-4.9-22.8c-0.6-2.6-0.9-6,2.4-7.3c3-1.3,4.1,1.7,6,3.2c17.4,14.9,35.3,29.3,52.1,44.8
			c11.8,10.8,24.6,20.9,32.3,35.7c1.3,2.4,3,5.2,5.2,6.3c17.9,9.1,18.7,26.9,20.7,42.9c1.3,11.2,2.1,21.5,11.8,28.9
			c5.2,3.9,4.3,10.8,5.2,16.4c3.5,19,3.7,38.3,3.7,57.5c0,12.7,0.6,25.4,1.5,38.1c1.1,13.6-2.1,27.8-3.4,41.6
			c-0.4,4.3-1.1,8.6-1.3,12.9c-0.6,15.1,0,30.4-2.1,45.5c-3,20.5,3.4,40.7,6,61c0.9,6.7,5.8,11.8,13.6,11.6
			c12.7-0.2,25.6-1.5,38.3-0.6c23.3,1.7,45.7-9,69.1-4.9c0,19.6-0.2,39.2,0.2,58.8c0.2,5.6-1.1,6.7-6.7,6.7
			C639.2,561.9,523.3,561.9,407.2,561.9z"/>
	</g>
</g>
<line fill="#FF0000" stroke="#FF0000" stroke-width="10" stroke-miterlimit="10" x1="201.7" y1="1.7" x2="761.9" y2="561.9"/>
<line fill="none" stroke="#FF0000" stroke-width="10" stroke-miterlimit="10" x1="201.7" y1="560" x2="761.5" y2="1.7"/>
</svg>
