<?xml version="1.0" encoding="utf-8"?>
<!-- Generator: Adobe Illustrator 18.1.0, SVG Export Plug-In . SVG Version: 6.00 Build 0)  -->
<svg version="1.1" id="Livello_1" xmlns="http://www.w3.org/2000/svg" xmlns:xlink="http://www.w3.org/1999/xlink" x="0px" y="0px"
	 viewBox="0 0 622 415" enable-background="new 0 0 622 415" xml:space="preserve">
<rect x="-44" y="-55" fill="#CCCCCC" width="728" height="530"/>
<path fill="#CCCCCC" d="M1.1,416c0-138.3,0-276.5,0-414.9c207.2,0,414.4,0,621.8,0c0,138.2,0,276.6,0,414.9
	C415.7,416,208.4,416,1.1,416z M321,26c-6.7,0-13.3-0.1-20,0c-3,0-6,0.3-8.9,0.7c-4.6,0.6-9,1.8-13.6,2.1c-5.4,0.4-11-0.6-15.5,3.9
	c-1.2,1.1-3.8,0.8-5.7,1.2c-2.6,0.5-5.3,0.8-7.7,1.8c-8,3.4-16,7-23.9,10.5c-2.3,1-4.4,2.2-6.6,3.5c-6.5,3.6-12.5,8.3-19.4,10.5
	c-9,2.9-13.4,10.8-20.5,15.7c-0.6,0.4-0.7,1.9-0.7,2.8c0.2,2.9-1.2,3.5-3.9,3.9c-1.6,0.2-3.1,1.9-4.5,3.1c-1.7,1.4-3.2,3-4.8,4.5
	c-1,0.9-2.1,1.6-3,2.5c-4.5,4.6-5,12.4-12.3,14.7c-0.5,0.2-0.7,1.4-1.1,2.2c-1,1.7-2.1,3.3-3,5.1c-3.3,6.5-9.7,11.4-10.3,19.3
	c-0.1,1-0.6,1.9-1.1,2.8c-2,4.1-5,8-5.9,12.3c-1.2,5.8-0.9,11.8-1.3,17.8c-0.2,3.1-0.2,6.2-0.6,9.3c-0.4,3.4-1.6,6.8-1.9,10.2
	c-1.5,21.3,2,42.5,3.1,63.7c0.1,1.6,0.8,3.2,1.6,4.6c3.2,5.7,7,11.2,9.7,17.1c3.1,6.8,5.4,13.8,12.9,17.2c0.9,0.4,1.3,2.2,1.8,3.4
	c1.6,3.8,2.1,8.9,4.9,11.2c5.5,4.6,8.8,12,16.5,14.1c1,0.3,1.4,2.1,2.3,3c1.4,1.5,2.7,3.3,4.4,4.1c4.9,2.4,11.2,2.5,13.1,9.3
	c0.2,0.8,1.4,1.4,2.3,1.8c8.9,4.6,17.8,9.1,26.8,13.6c5,2.5,9.8,5.4,14.9,7.6c6.3,2.6,12.8,4.7,19.3,6.8c4.4,1.5,8.8,3,13.4,3.8
	c7.8,1.4,15.8,2.4,23.7,3.4c18,2.3,35.9,3.9,53.8-1.4c7.4-2.2,15.1-3.7,22.8-4.6c5.4-0.7,10.5-0.9,15.5-4.2c3.4-2.3,8.8-1.4,12.8-3
	c6.4-2.5,12.6-5.7,18.7-9c4.3-2.3,8.3-5.2,12.4-7.9c4.1-2.7,7.9-5.8,12.2-8.1c5-2.6,10.2-4.6,12.6-10.4c0.4-1,1.5-1.7,2.4-2.4
	c4.1-3.5,8.2-7,12.3-10.6c0.3-0.3,0.4-0.9,0.7-1.3c1.5-1.6,3-3.2,4.6-4.7c0.9-0.9,2.3-1.5,3-2.5c5.4-7.3,9.2-15.2,9-24.7
	c-0.1-3.4,0.8-7,2-10.2c4.7-11.8,7.9-23.8,6.1-36.7c-0.1-0.8,0-1.7,0.2-2.5c5.5-23.5,1.2-47-1.2-70.4c-0.5-5.2-2.9-10-0.8-15.4
	c0.5-1.2-0.4-2.9-0.8-4.3c-1.4-5.1-3.9-10-4.1-15.1c-0.4-10.7-2.5-20.4-11-27.6c-4.6-3.8-10.4-6.3-12-12.9c-0.2-0.8-1.2-1.6-2.1-2.1
	c-4.1-2.3-8.8-3.7-10.3-9.1c-0.2-0.8-2.4-0.9-3.5-1.5c-4.4-2.2-10.4-2.1-11.9-8.5c-0.1-0.5-0.8-1.1-1.4-1.4
	c-8-4.5-15.6-10.1-24.2-13.1c-9-3.2-16.5-11-27.2-9.2c-0.4,0.1-1-0.3-1.4-0.5c-16.6-7.8-34.3-9.6-52.3-10
	C328.7,25.9,324.9,26,321,26z"/>
<path fill="#FEFEFE" d="M407,290c-54.7,0-109.3,0-164,0.1c-3.8,0-6.6-0.8-8.2-4.9c-13.6-35.8-27.4-71.6-41.1-107.3
	c-2.3-6.1-1.8-6.9,4.2-9.2c35.6-13.8,71.1-27.7,106.6-41.5c12.7-4.9,25.5-9.8,38.3-14.5c5.9-2.2,7.2-1.5,9.5,4.3
	c5.1,12.9,10.2,25.7,15,38.7c1.5,4,3.4,6.6,8,6.7c8.2,0.1,16.3,0.6,24.4,0.5c6.7-0.1,7.2,0.1,7.2,6.8c0,35.8,0,71.7,0,107.5
	c0,1,0.1,2,0.1,3C407,283.3,407,286.6,407,290z M364,177c-30,0-60,0-90,0c-5.7,0-11.3,0.1-17,0c-4.2-0.1-6,1.6-6,5.9
	c0.1,29,0.1,58,0,87c0,4.5,1.9,6.2,6.3,6.2c43.2-0.1,86.3-0.1,129.5,0c4.4,0,6.3-1.6,6.3-6.2c-0.1-29-0.1-58,0-87c0-4.3-1.8-6-6-5.9
	C379.3,177.1,371.7,177,364,177z M257.5,161c0.1,0.4,0.1,0.9,0.2,1.3c1.1,0.2,2.1,0.7,3.2,0.7c29.1,0,58.3,0.1,87.4,0
	c5.2,0,6.3-1.8,4.4-6.6c-2.6-7-5.5-13.9-8.1-20.9c-2.2-5.9-3.8-6.9-9.7-4.6c-24.2,9.3-48.4,18.6-72.7,28
	C260.6,159.3,259.1,160.2,257.5,161z M236,246.8c0.5-1.2,0.9-1.8,0.9-2.4c0-23.6,0.1-47.2,0.1-70.9c0-3.6-1.9-4.2-4.9-3
	c-5.1,2-10.2,4-15.4,5.9c-7,2.7-7.3,3.2-4.6,10.1c7.3,18.9,14.6,37.8,21.9,56.8C234.4,244.4,235.1,245.3,236,246.8z"/>
<path fill="#E3E3E3" d="M364,177c7.7,0,15.3,0.1,23,0c4.2-0.1,6,1.6,6,5.9c-0.1,29-0.1,58,0,87c0,4.5-1.9,6.2-6.3,6.2
	c-43.2-0.1-86.3-0.1-129.5,0c-4.4,0-6.3-1.6-6.3-6.2c0.1-29,0.1-58,0-87c0-4.3,1.8-6,6-5.9c5.7,0.1,11.3,0,17,0
	c6.7,1.2,13.4,2.4,20.6,3.8c-3.2,5.5-5.8,9.5-11.9,10.2c-3.8,0.4-8.2,1.8-10.8,4.3c-7.7,7.6-4.5,21.7,5.8,25.1c4,1.3,8.7,0,13.1,0.2
	c4.7,0.2,9.3,0.7,13.9,1.4c2.1,0.3,3.9,1.7,6,2.5c9,3.5,9.6,5.6,3.9,13.5c-0.5,0.7-1,1.3-1.5,2c-1.8,2.6-3.9,2.7-6.4,1
	c-2.6-1.8-5.1-3.7-7.8-5.5c-2.5-1.7-4.6-1.8-6.1,1.3c-8,8-15.6,16.3-23.1,26.5c3.8,0.3,6.1,0.6,8.3,0.6c32,0.1,63.9,0.1,95.9,0.2
	c4.5,0,5.3-1.2,3.9-6c-4-13.7-8-27.5-12.1-41.2c-1.6-3.4-4.3-2.9-7.2-2.4c-1.5,0.3-4,0.3-4.4-0.5c-0.7-1.3-0.6-3.6,0.1-4.9
	c1.6-3.1,2.2-6-0.2-8.8c-2.3-2.6-2.1-4.7,0.1-7.4c1-1.2,0.3-3.8,0.3-5.8c-1.3,0.9-2.6,1.7-3.9,2.6c-0.5,0.3-1,0.7-1.5,1.1
	c-4.1-5-3-10.1,2.5-11.7C355.8,178.2,359.9,177.8,364,177z"/>
<path fill="#EDEDED" d="M257.5,161c1.6-0.8,3.2-1.6,4.8-2.3c24.2-9.4,48.4-18.7,72.7-28c5.9-2.2,7.5-1.3,9.7,4.6
	c2.6,7,5.5,13.9,8.1,20.9c1.8,4.8,0.7,6.6-4.4,6.6c-29.1,0.1-58.3,0.1-87.4,0c-1.1,0-2.1-0.4-3.2-0.7
	C257.6,161.8,257.5,161.4,257.5,161z"/>
<path fill="#E1E1E1" d="M236,246.8c-0.9-1.5-1.6-2.4-2-3.4c-7.3-18.9-14.7-37.8-21.9-56.8c-2.7-7-2.4-7.4,4.6-10.1
	c5.1-2,10.2-3.9,15.4-5.9c3-1.2,4.9-0.7,4.9,3c0,23.6,0,47.2-0.1,70.9C236.9,245,236.5,245.6,236,246.8z"/>
<path fill="#FEFEFE" d="M293,237c2,0.5,4.2,0.6,6,1.5c2.8,1.4,5.5,3.1,8.1,5c3.5,2.6,5.7,1.9,8.1-1.6c8-11.9,16.2-23.6,24.5-35.3
	c3.3-4.6,4.6-4.5,7.3,0.4c0.3,0.6,0.6,1.2,0.9,1.8c4.6,9,4.6,8.9,14.2,7.9c1.3-0.1,2.6,0.2,3.9,0.4c4,13.7,8,27.5,12.1,41.2
	c1.4,4.8,0.6,6-3.9,6c-32-0.1-63.9-0.1-95.9-0.2c-2.3,0-4.5-0.3-8.3-0.6C277.4,253.3,285,245,293,237z"/>
</svg>
